<svg xmlns="http://www.w3.org/2000/svg" width="1200" height="430" viewBox="0 0 1200 430">
<defs>

<linearGradient id="heroGlow" x1="0" y1="0" x2="1" y2="1">
  <stop offset="0%" stop-color="#4f8cff" stop-opacity="0.24"/>
  <stop offset="55%" stop-color="#5ee7ff" stop-opacity="0.10"/>
  <stop offset="100%" stop-color="#a78bfa" stop-opacity="0.08"/>
</linearGradient>
<linearGradient id="lineGlow" x1="0" y1="0" x2="1" y2="0">
  <stop offset="0%" stop-color="#4f8cff"/>
  <stop offset="50%" stop-color="#5ee7ff"/>
  <stop offset="100%" stop-color="#39ff88"/>
</linearGradient>
<filter id="softGlow" x="-50%" y="-50%" width="200%" height="200%">
  <feGaussianBlur stdDeviation="8" result="blur"/>
  <feMerge><feMergeNode in="blur"/><feMergeNode in="SourceGraphic"/></feMerge>
</filter>
<pattern id="grid" width="36" height="36" patternUnits="userSpaceOnUse">
  <path d="M 36 0 L 0 0 0 36" fill="none" stroke="#122033" stroke-width="1"/>
</pattern>

</defs>

<rect width="1200" height="430" rx="28" fill="#05080d"/>
<rect x="1" y="1" width="1198" height="428" rx="27" fill="#0b1119" stroke="#1c2a3a" stroke-width="2"/>
<text x="54" y="54" fill="#39ff88" font-size="16" font-family="ui-monospace,Consolas,monospace" letter-spacing="3">05 / CURRENT MISSION</text>
<text x="54" y="94" fill="#f7fbff" font-size="31" font-family="Segoe UI,Arial,sans-serif" font-weight="750">What gets attention now.</text>
<text x="54" y="125" fill="#8ea0b5" font-size="17" font-family="Segoe UI,Arial,sans-serif">Focus is visible. Long-term ambition stays controlled.</text>

    <text x="64" y="174" fill="#f7fbff" font-size="16" font-family="Segoe UI,Arial,sans-serif" font-weight="700">CRYPTIXBOT</text>
    <text x="64" y="197" fill="#8ea0b5" font-size="13" font-family="Segoe UI,Arial,sans-serif">Controlled users · live-money reliability</text>
    <rect x="470" y="156" width="650" height="18" rx="9" fill="#1c2a3a"/>
    <rect x="470" y="156" width="598" height="18" rx="9" fill="#39ff88"/>
    <text x="1135" y="171" text-anchor="end" fill="#39ff88" font-size="12" font-family="ui-monospace,Consolas,monospace">92</text>
    
    <text x="64" y="242" fill="#f7fbff" font-size="16" font-family="Segoe UI,Arial,sans-serif" font-weight="700">TURBOPAY</text>
    <text x="64" y="265" fill="#8ea0b5" font-size="13" font-family="Segoe UI,Arial,sans-serif">MVP · partnerships · validation</text>
    <rect x="470" y="224" width="650" height="18" rx="9" fill="#1c2a3a"/>
    <rect x="470" y="224" width="468" height="18" rx="9" fill="#4f8cff"/>
    <text x="1135" y="239" text-anchor="end" fill="#4f8cff" font-size="12" font-family="ui-monospace,Consolas,monospace">72</text>
    
    <text x="64" y="310" fill="#f7fbff" font-size="16" font-family="Segoe UI,Arial,sans-serif" font-weight="700">FOUNDER DEVELOPMENT</text>
    <text x="64" y="333" fill="#8ea0b5" font-size="13" font-family="Segoe UI,Arial,sans-serif">Technical judgement · finance · distribution</text>
    <rect x="470" y="292" width="650" height="18" rx="9" fill="#1c2a3a"/>
    <rect x="470" y="292" width="546" height="18" rx="9" fill="#5ee7ff"/>
    <text x="1135" y="307" text-anchor="end" fill="#5ee7ff" font-size="12" font-family="ui-monospace,Consolas,monospace">84</text>
    
    <text x="64" y="378" fill="#f7fbff" font-size="16" font-family="Segoe UI,Arial,sans-serif" font-weight="700">PROJECT BEYOND LIFE</text>
    <text x="64" y="401" fill="#8ea0b5" font-size="13" font-family="Segoe UI,Arial,sans-serif">Private research cadence</text>
    <rect x="470" y="360" width="650" height="18" rx="9" fill="#1c2a3a"/>
    <rect x="470" y="360" width="208" height="18" rx="9" fill="#a78bfa"/>
    <text x="1135" y="375" text-anchor="end" fill="#a78bfa" font-size="12" font-family="ui-monospace,Consolas,monospace">32</text>
    
<text x="64" y="398" fill="#8ea0b5" font-size="13" font-family="ui-monospace,Consolas,monospace">
NEXT PROOF → USERS · RETENTION · REVENUE · REPEATED USE
</text>

</svg>