<svg xmlns="http://www.w3.org/2000/svg" width="1200" height="510" viewBox="0 0 1200 510">
<defs>

<linearGradient id="heroGlow" x1="0" y1="0" x2="1" y2="1">
  <stop offset="0%" stop-color="#4f8cff" stop-opacity="0.24"/>
  <stop offset="55%" stop-color="#5ee7ff" stop-opacity="0.10"/>
  <stop offset="100%" stop-color="#a78bfa" stop-opacity="0.08"/>
</linearGradient>
<linearGradient id="lineGlow" x1="0" y1="0" x2="1" y2="0">
  <stop offset="0%" stop-color="#4f8cff"/>
  <stop offset="50%" stop-color="#5ee7ff"/>
  <stop offset="100%" stop-color="#39ff88"/>
</linearGradient>
<filter id="softGlow" x="-50%" y="-50%" width="200%" height="200%">
  <feGaussianBlur stdDeviation="8" result="blur"/>
  <feMerge><feMergeNode in="blur"/><feMergeNode in="SourceGraphic"/></feMerge>
</filter>
<pattern id="grid" width="36" height="36" patternUnits="userSpaceOnUse">
  <path d="M 36 0 L 0 0 0 36" fill="none" stroke="#122033" stroke-width="1"/>
</pattern>

</defs>

<rect width="1200" height="510" rx="28" fill="#05080d"/>
<rect x="1" y="1" width="1198" height="508" rx="27" fill="#0b1119" stroke="#1c2a3a" stroke-width="2"/>
<text x="54" y="54" fill="#5ee7ff" font-size="16" font-family="ui-monospace,Consolas,monospace" letter-spacing="3">02 / THE WORLD I AM BUILDING</text>
<text x="54" y="94" fill="#f7fbff" font-size="31" font-family="Segoe UI,Arial,sans-serif" font-weight="750">One founder. Three layers.</text>
<text x="54" y="125" fill="#8ea0b5" font-size="17" font-family="Segoe UI,Arial,sans-serif">Company, execution and long-horizon research.</text>

    <rect x="50" y="165" width="340" height="290" rx="22" fill="#0e1621" stroke="#1c2a3a"/>
    <rect x="50" y="165" width="340" height="7" rx="3.5" fill="#4f8cff"/>
    <text x="74" y="215" fill="#4f8cff" font-size="13" font-family="ui-monospace,Consolas,monospace">01</text>
    <text x="74" y="247" fill="#f7fbff" font-size="22" font-family="Segoe UI,Arial,sans-serif" font-weight="750">TURBOPAY TECHNOLOGIES</text>
    <text x="74" y="273" fill="#8ea0b5" font-size="12" font-family="ui-monospace,Consolas,monospace" letter-spacing="1.4">THE COMPANY LAYER</text>
    
        <circle cx="79" cy="310" r="3.5" fill="#4f8cff"/>
        <text x="92" y="315" fill="#f7fbff" font-size="14" font-family="Segoe UI,Arial,sans-serif">DPIIT-recognised startup</text>
        
        <circle cx="79" cy="340" r="3.5" fill="#4f8cff"/>
        <text x="92" y="345" fill="#f7fbff" font-size="14" font-family="Segoe UI,Arial,sans-serif">Financial software</text>
        
        <circle cx="79" cy="370" r="3.5" fill="#4f8cff"/>
        <text x="92" y="375" fill="#f7fbff" font-size="14" font-family="Segoe UI,Arial,sans-serif">Merchant technology</text>
        
        <circle cx="79" cy="400" r="3.5" fill="#4f8cff"/>
        <text x="92" y="405" fill="#f7fbff" font-size="14" font-family="Segoe UI,Arial,sans-serif">Multi-product direction</text>
        
    <rect x="74" y="401" width="292" height="30" rx="15" fill="#05080d" stroke="#1c2a3a"/>
    <text x="220.0" y="421" text-anchor="middle" fill="#4f8cff" font-size="11" font-family="ui-monospace,Consolas,monospace">STATE / COMPANY BUILDING</text>
    
    <rect x="430" y="165" width="340" height="290" rx="22" fill="#0e1621" stroke="#1c2a3a"/>
    <rect x="430" y="165" width="340" height="7" rx="3.5" fill="#39ff88"/>
    <text x="454" y="215" fill="#39ff88" font-size="13" font-family="ui-monospace,Consolas,monospace">02</text>
    <text x="454" y="247" fill="#f7fbff" font-size="22" font-family="Segoe UI,Arial,sans-serif" font-weight="750">CRYPTIXBOT</text>
    <text x="454" y="273" fill="#8ea0b5" font-size="12" font-family="ui-monospace,Consolas,monospace" letter-spacing="1.4">THE EXECUTION LAYER</text>
    
        <circle cx="459" cy="310" r="3.5" fill="#39ff88"/>
        <text x="472" y="315" fill="#f7fbff" font-size="14" font-family="Segoe UI,Arial,sans-serif">Deployed trading SaaS</text>
        
        <circle cx="459" cy="340" r="3.5" fill="#39ff88"/>
        <text x="472" y="345" fill="#f7fbff" font-size="14" font-family="Segoe UI,Arial,sans-serif">Non-custodial design</text>
        
        <circle cx="459" cy="370" r="3.5" fill="#39ff88"/>
        <text x="472" y="375" fill="#f7fbff" font-size="14" font-family="Segoe UI,Arial,sans-serif">Risk controls</text>
        
        <circle cx="459" cy="400" r="3.5" fill="#39ff88"/>
        <text x="472" y="405" fill="#f7fbff" font-size="14" font-family="Segoe UI,Arial,sans-serif">Live + simulation modes</text>
        
    <rect x="454" y="401" width="292" height="30" rx="15" fill="#05080d" stroke="#1c2a3a"/>
    <text x="600.0" y="421" text-anchor="middle" fill="#39ff88" font-size="11" font-family="ui-monospace,Consolas,monospace">STATE / PRODUCTION HARDENING</text>
    
    <rect x="810" y="165" width="340" height="290" rx="22" fill="#0e1621" stroke="#1c2a3a"/>
    <rect x="810" y="165" width="340" height="7" rx="3.5" fill="#a78bfa"/>
    <text x="834" y="215" fill="#a78bfa" font-size="13" font-family="ui-monospace,Consolas,monospace">03</text>
    <text x="834" y="247" fill="#f7fbff" font-size="22" font-family="Segoe UI,Arial,sans-serif" font-weight="750">PROJECT BEYOND LIFE</text>
    <text x="834" y="273" fill="#8ea0b5" font-size="12" font-family="ui-monospace,Consolas,monospace" letter-spacing="1.4">THE RESEARCH LAYER</text>
    
        <circle cx="839" cy="310" r="3.5" fill="#a78bfa"/>
        <text x="852" y="315" fill="#f7fbff" font-size="14" font-family="Segoe UI,Arial,sans-serif">Private initiative</text>
        
        <circle cx="839" cy="340" r="3.5" fill="#a78bfa"/>
        <text x="852" y="345" fill="#f7fbff" font-size="14" font-family="Segoe UI,Arial,sans-serif">Multi-model analysis</text>
        
        <circle cx="839" cy="370" r="3.5" fill="#a78bfa"/>
        <text x="852" y="375" fill="#f7fbff" font-size="14" font-family="Segoe UI,Arial,sans-serif">Public knowledge</text>
        
        <circle cx="839" cy="400" r="3.5" fill="#a78bfa"/>
        <text x="852" y="405" fill="#f7fbff" font-size="14" font-family="Segoe UI,Arial,sans-serif">Future real-world systems</text>
        
    <rect x="834" y="401" width="292" height="30" rx="15" fill="#05080d" stroke="#1c2a3a"/>
    <text x="980.0" y="421" text-anchor="middle" fill="#a78bfa" font-size="11" font-family="ui-monospace,Consolas,monospace">STATE / RESEARCH</text>
    
</svg>